# Blender v2.93.5 OBJ File: 'Grass.blend'
# www.blender.org
mtllib Grass.mtl
o Grass_Plane.004
v -0.069814 -0.141121 -0.046295
v 0.146629 -0.057352 -0.046295
v -0.251565 0.016739 0.046295
v -0.094555 0.077506 0.046295
v -0.920402 1.145299 0.609216
v -0.805321 1.189838 0.609216
v -0.879570 2.096802 0.988860
v -0.800366 2.127456 0.988860
v -0.994263 2.867260 1.319470
v -0.932811 2.891043 1.319470
v -1.493206 3.212344 1.537831
v -1.444965 3.231015 1.537831
v 0.267989 -0.087512 0.030019
v 0.256446 -0.087512 0.274608
v 0.267336 0.157350 0.043852
v 0.255793 0.157350 0.288441
v 0.269832 1.853780 -0.009028
v 0.260871 1.853780 0.180858
v 0.268800 3.341099 0.012833
v 0.261902 3.341100 0.158997
v 0.262980 4.226511 0.136166
v 0.258698 4.226511 0.226892
v 0.258671 4.749980 0.227463
v 0.254389 4.749980 0.318190
v 0.895222 -0.106095 0.260376
v 0.684366 -0.106095 0.119992
v 0.883296 0.147218 0.252436
v 0.672441 0.147218 0.112052
v 0.885330 1.687305 0.253790
v 0.761038 1.687305 0.171039
v 0.637131 3.061206 0.088543
v 0.579933 3.061205 0.050461
v 0.835980 4.077462 0.220934
v 0.788637 4.077462 0.189414
v 1.287769 4.683468 0.521728
v 1.240773 4.683468 0.490439
v -0.248357 -0.077940 -0.327084
v -0.123132 -0.077940 -0.116666
v -0.309069 0.166922 -0.429100
v -0.218230 0.166922 -0.276460
v -0.425837 1.655626 -0.625306
v -0.359256 1.655626 -0.513429
v -0.219989 2.659636 -0.279416
v -0.174164 2.659636 -0.202416
v -0.127656 3.533969 -0.124269
v -0.092103 3.533969 -0.064528
v -0.311515 4.111447 -0.433208
v -0.283604 4.111446 -0.386310
v 0.295564 -0.077465 -0.503309
v 0.209152 -0.077465 -0.274201
v 0.290677 0.167397 -0.490351
v 0.204265 0.167397 -0.261243
v 0.291511 1.656100 -0.492561
v 0.240574 1.656100 -0.357510
v 0.189795 2.984163 -0.222877
v 0.166354 2.984163 -0.160727
v 0.271286 3.966513 -0.438939
v 0.251884 3.966514 -0.387497
v 0.456436 4.552300 -0.929836
v 0.437177 4.552300 -0.878772
v -0.042502 -0.123443 -0.408528
v 0.040984 -0.053969 -0.272284
v -0.046298 0.037581 -0.475708
v 0.037188 0.107054 -0.339464
v -0.098890 0.992006 -0.932310
v -0.049678 1.032958 -0.851998
v -0.046817 1.925818 -1.178094
v -0.024170 1.944664 -1.141135
v -0.159721 2.490539 -1.607010
v -0.140976 2.506138 -1.576419
v -0.358980 2.717501 -2.078084
v -0.340373 2.732985 -2.047717
v 0.478460 -0.047008 -0.040984
v 0.578785 -0.163962 -0.216010
v 0.586192 0.142978 -0.123752
v 0.686518 0.026024 -0.298778
v 1.271575 1.530331 -0.590758
v 1.349463 1.439535 -0.726639
v 1.900457 2.714051 -1.049018
v 1.960411 2.644161 -1.153611
v 2.518066 3.175393 -1.613732
v 2.555280 3.132011 -1.678655
v 2.819375 3.291027 -2.169170
v 2.844389 3.261866 -2.212810
v 0.487028 -0.110989 0.112267
v 0.465879 -0.012100 -0.024346
v 0.473878 0.031062 0.205168
v 0.452730 0.129951 0.068554
v 0.401408 0.859742 0.818274
v 0.388942 0.918033 0.737745
v 0.311682 1.716255 1.203237
v 0.305946 1.743080 1.166178
v 0.283671 2.170447 1.735773
v 0.278923 2.192651 1.705099
v 0.300389 2.285014 2.269218
v 0.295675 2.307055 2.238770
vt 0.201425 0.000000
vt 0.249474 0.000807
vt 0.212178 0.048243
vt 0.177323 0.047658
vt 0.153159 0.339461
vt 0.127612 0.339032
vt 0.220870 0.537670
vt 0.203287 0.537375
vt 0.249474 0.709769
vt 0.235833 0.709540
vt 0.174092 0.821852
vt 0.163383 0.821673
vt 0.543013 0.000000
vt 0.593605 0.000130
vt 0.596138 0.050748
vt 0.545546 0.050617
vt 0.571612 0.401320
vt 0.532335 0.401219
vt 0.565098 0.708718
vt 0.534864 0.708640
vt 0.577955 0.891757
vt 0.559189 0.891709
vt 0.596138 1.000000
vt 0.577372 0.999951
vt 0.437129 0.977551
vt 0.409240 0.973837
vt 0.404916 0.921604
vt 0.432805 0.925317
vt 0.399940 0.606876
vt 0.416379 0.609065
vt 0.361092 0.321528
vt 0.368657 0.322535
vt 0.377680 0.116494
vt 0.383942 0.117328
vt 0.430913 0.000000
vt 0.437129 0.000828
vt 0.317082 0.000000
vt 0.361092 0.002139
vt 0.326931 0.051120
vt 0.295006 0.049568
vt 0.272874 0.356380
vt 0.249474 0.355243
vt 0.334892 0.567040
vt 0.318787 0.566257
vt 0.361092 0.749140
vt 0.348597 0.748532
vt 0.292047 0.865215
vt 0.282238 0.864738
vt 0.127612 0.963012
vt 0.080806 0.968414
vt 0.073550 0.918319
vt 0.120356 0.912917
vt 0.065198 0.609626
vt 0.092788 0.606441
vt 0.000000 0.340907
vt 0.012697 0.339441
vt 0.027839 0.133360
vt 0.038349 0.132148
vt 0.117180 0.001204
vt 0.127612 0.000000
vt 0.684379 0.678948
vt 0.652014 0.680316
vt 0.646997 0.644619
vt 0.679362 0.643252
vt 0.641221 0.426547
vt 0.660300 0.425741
vt 0.596138 0.233694
vt 0.604918 0.233323
vt 0.615389 0.088820
vt 0.622656 0.088513
vt 0.677166 0.000305
vt 0.684379 0.000000
vt 0.731675 0.577111
vt 0.687748 0.588264
vt 0.684379 0.547735
vt 0.728306 0.536582
vt 0.697573 0.257670
vt 0.731675 0.249012
vt 0.696126 0.006665
vt 0.722376 0.000000
vt 0.709174 0.746853
vt 0.684379 0.739318
vt 0.693784 0.588264
vt 0.709174 0.592942
vt 0.720804 0.714595
vt 0.709174 0.702456
vt 0.712987 0.588264
vt 0.720804 0.596424
vt 0.532335 0.667807
vt 0.497415 0.671116
vt 0.492002 0.636310
vt 0.526922 0.633000
vt 0.485770 0.422166
vt 0.506355 0.420216
vt 0.437129 0.235213
vt 0.446602 0.234316
vt 0.457899 0.091549
vt 0.465739 0.090806
vt 0.524552 0.000738
vt 0.532335 0.000000
vn 0.1440 -0.3720 0.9170
vn -0.9989 0.0000 -0.0471
vn 0.5542 0.0000 -0.8324
vn -0.8593 0.0000 0.5114
vn -0.9356 0.0000 -0.3529
vn -0.8764 0.1677 0.4515
vn 0.7895 -0.1940 0.5822
vn 0.7684 -0.2329 0.5961
vn 0.7745 -0.2221 0.5923
vn 0.8469 -0.0634 0.5278
vn 0.7914 -0.1904 0.5809
vn 0.8759 0.0307 0.4815
vn 0.9897 0.1302 -0.0590
usemtl None
s 1
f 1/1/1 2/2/1 4/3/1 3/4/1
f 3/4/1 4/3/1 6/5/1 5/6/1
f 5/6/1 6/5/1 8/7/1 7/8/1
f 7/8/1 8/7/1 10/9/1 9/10/1
f 9/10/1 10/9/1 12/11/1 11/12/1
f 13/13/2 14/14/2 16/15/2 15/16/2
f 15/16/2 16/15/2 18/17/2 17/18/2
f 17/18/2 18/17/2 20/19/2 19/20/2
f 19/20/2 20/19/2 22/21/2 21/22/2
f 21/22/2 22/21/2 24/23/2 23/24/2
f 25/25/3 26/26/3 28/27/3 27/28/3
f 27/28/3 28/27/3 30/29/3 29/30/3
f 29/30/3 30/29/3 32/31/3 31/32/3
f 31/32/3 32/31/3 34/33/3 33/34/3
f 33/34/3 34/33/3 36/35/3 35/36/3
f 37/37/4 38/38/4 40/39/4 39/40/4
f 39/40/4 40/39/4 42/41/4 41/42/4
f 41/42/4 42/41/4 44/43/4 43/44/4
f 43/44/4 44/43/4 46/45/4 45/46/4
f 45/46/4 46/45/4 48/47/4 47/48/4
f 49/49/5 50/50/5 52/51/5 51/52/5
f 51/52/5 52/51/5 54/53/5 53/54/5
f 53/54/5 54/53/5 56/55/5 55/56/5
f 55/56/5 56/55/5 58/57/5 57/58/5
f 57/58/5 58/57/5 60/59/5 59/60/5
f 61/61/6 62/62/6 64/63/6 63/64/6
f 63/64/6 64/63/6 66/65/6 65/66/6
f 65/66/6 66/65/6 68/67/6 67/68/6
f 67/68/6 68/67/6 70/69/6 69/70/6
f 69/70/6 70/69/6 72/71/6 71/72/6
f 73/73/7 74/74/7 76/75/7 75/76/7
f 75/76/7 76/75/7 78/77/7 77/78/7
f 77/78/7 78/77/7 80/79/8 79/80/9
f 79/81/9 80/82/8 82/83/10 81/84/11
f 81/85/11 82/86/10 84/87/12 83/88/12
f 85/89/13 86/90/13 88/91/13 87/92/13
f 87/92/13 88/91/13 90/93/13 89/94/13
f 89/94/13 90/93/13 92/95/13 91/96/13
f 91/96/13 92/95/13 94/97/13 93/98/13
f 93/98/13 94/97/13 96/99/13 95/100/13
